<svg width="138" height="138" viewBox="0 0 138 138" fill="none" xmlns="http://www.w3.org/2000/svg">
<rect x="1" y="1" width="136" height="136" rx="68" fill="url(#paint0_linear_1_143)"/>
<rect x="1" y="1" width="136" height="136" rx="68" stroke="url(#paint1_linear_1_143)" stroke-width="2"/>
<rect x="17" y="17" width="104" height="104" rx="52" fill="url(#paint2_linear_1_143)"/>
<rect x="17" y="17" width="104" height="104" rx="52" stroke="url(#paint3_linear_1_143)" stroke-width="2"/>
<rect x="35" y="35" width="68" height="68" rx="34" fill="url(#paint4_linear_1_143)"/>
<rect x="35" y="35" width="68" height="68" rx="34" stroke="url(#paint5_linear_1_143)" stroke-width="2"/>
<path d="M61.9167 68.9999L69 61.9166L76.0833 68.9999L69 76.0833L61.9167 68.9999Z" fill="white"/>
<path d="M83.1667 60.4999V68.9999L69 54.8333H77.5L83.1667 60.4999Z" fill="white"/>
<path d="M83.1667 77.4999V68.9999L69 83.1666H77.5L83.1667 77.4999Z" fill="white"/>
<path d="M54.8333 77.4999V68.9999L69 83.1666H60.5L54.8333 77.4999Z" fill="white"/>
<path d="M54.8333 60.4999V68.9999L69 54.8333H60.5L54.8333 60.4999Z" fill="white"/>
<defs>
<linearGradient id="paint0_linear_1_143" x1="69" y1="0" x2="69" y2="138" gradientUnits="userSpaceOnUse">
<stop stop-color="#1A1A1A"/>
<stop offset="0.565952" stop-color="#1A1A1A" stop-opacity="0"/>
</linearGradient>
<linearGradient id="paint1_linear_1_143" x1="69" y1="0" x2="69" y2="138" gradientUnits="userSpaceOnUse">
<stop stop-color="#333333"/>
<stop offset="0.745602" stop-color="#333333" stop-opacity="0"/>
</linearGradient>
<linearGradient id="paint2_linear_1_143" x1="69" y1="16" x2="69" y2="122" gradientUnits="userSpaceOnUse">
<stop stop-color="#1A1A1A"/>
<stop offset="0.658009" stop-color="#1A1A1A" stop-opacity="0"/>
</linearGradient>
<linearGradient id="paint3_linear_1_143" x1="69" y1="16" x2="69" y2="122" gradientUnits="userSpaceOnUse">
<stop stop-color="#333333"/>
<stop offset="0.82384" stop-color="#333333" stop-opacity="0"/>
</linearGradient>
<linearGradient id="paint4_linear_1_143" x1="69" y1="36" x2="69" y2="102" gradientUnits="userSpaceOnUse">
<stop stop-color="#1A1A1A"/>
<stop offset="1" stop-color="#1A1A1A" stop-opacity="0"/>
</linearGradient>
<linearGradient id="paint5_linear_1_143" x1="69" y1="36" x2="69" y2="102" gradientUnits="userSpaceOnUse">
<stop stop-color="#333333"/>
<stop offset="0.84964" stop-color="#333333" stop-opacity="0"/>
</linearGradient>
</defs>
</svg>
