<svg width="138" height="138" viewBox="0 0 138 138" fill="none" xmlns="http://www.w3.org/2000/svg">
<rect x="1" y="1" width="136" height="136" rx="68" fill="url(#paint0_linear_1_106)"/>
<rect x="1" y="1" width="136" height="136" rx="68" stroke="url(#paint1_linear_1_106)" stroke-width="2"/>
<rect x="17" y="17" width="104" height="104" rx="52" fill="url(#paint2_linear_1_106)"/>
<rect x="17" y="17" width="104" height="104" rx="52" stroke="url(#paint3_linear_1_106)" stroke-width="2"/>
<rect x="35" y="35" width="68" height="68" rx="34" fill="url(#paint4_linear_1_106)"/>
<rect x="35" y="35" width="68" height="68" rx="34" stroke="url(#paint5_linear_1_106)" stroke-width="2"/>
<path d="M79.9154 76.1393C79.653 77.5414 78.9967 79.6187 77.3585 81.5587C75.1127 84.216 72.3722 85.0649 71.3415 85.3862C70.0249 85.7938 68.6504 86.0001 67.257 86.0001C63.7117 86.0001 60.361 84.6657 57.8217 82.2434C55.2856 79.8269 53.8316 76.5877 53.7262 73.1268C53.7203 72.9926 53.719 72.8566 53.719 72.7205C53.719 71.1836 53.9827 69.678 54.5062 68.2491C55.3904 65.8198 56.9713 63.7054 59.077 62.1378C61.4465 60.3735 64.2749 59.4409 67.2564 59.4409H67.2622C67.3202 59.4409 67.3762 59.4409 67.4341 59.4435C68.2721 59.4537 69.1055 59.5399 69.9175 59.6983C70.2437 59.7635 70.4814 60.0395 70.4957 60.3716C70.5217 61.0053 70.5159 61.6396 70.51 62.3103C70.5087 62.5422 70.5054 62.7773 70.5054 63.0162C69.9748 62.8916 69.0385 62.7236 67.8502 62.7236C66.2335 62.7236 63.8289 63.0545 61.55 64.6323C60.2608 65.5253 57.2402 68.0638 57.0416 72.3526C56.8365 76.7844 59.8239 79.6142 60.7439 80.3756C61.6177 81.0987 64.0197 82.7826 67.4276 82.7826C67.69 82.7826 67.9583 82.773 68.2207 82.7513C68.9721 82.6931 72.8462 82.2447 75.3498 79.0981C76.094 78.1629 76.8942 76.1265 77.0863 75.5778L79.319 75.473L79.3476 75.4717C79.5195 75.4717 79.681 75.5465 79.7904 75.6755C79.9011 75.8039 79.946 75.9738 79.9154 76.1393Z" fill="url(#paint6_linear_1_106)"/>
<path d="M84.9979 65.8152C82.8818 64.958 80.7852 63.8484 79.2459 62.7714C79.1952 62.7363 79.1405 62.7178 79.0845 62.7178C78.9933 62.7178 78.9041 62.7657 78.8494 62.8423C78.8188 62.8845 78.7732 62.9739 78.8175 63.094L79.132 63.9461C79.1476 63.9902 79.1405 64.0381 79.1144 64.0764C79.0871 64.1135 79.0422 64.1358 78.9959 64.1358H76.2866C76.2072 64.1358 76.1421 64.072 76.1421 63.994L76.1408 53H73.3598C72.2276 53.0026 71.9346 53.297 71.9293 54.4334C71.9267 55.2581 71.928 56.0847 71.928 56.9112C71.928 57.3341 71.9293 57.7576 71.9293 58.1805C71.928 59.6663 71.9293 61.1508 71.932 62.636L71.9333 63.9947C71.9333 64.033 71.9176 64.0681 71.8916 64.095C71.8642 64.1218 71.8265 64.1358 71.7894 64.1358H67.3644C67.3526 64.1384 67.3416 64.1403 67.3299 64.1403C62.4335 64.1984 58.7006 67.72 58.4525 72.5128C58.336 74.7881 59.2345 77.0903 60.9177 78.8278C62.5734 80.5359 64.812 81.5164 67.0616 81.5164C67.1931 81.5164 67.3253 81.5139 67.4568 81.5062C72.5668 81.2513 76.1382 77.5573 76.1408 72.5237C76.1408 71.5502 76.1408 68.1474 76.1408 68.1474C76.1408 68.0682 76.2059 68.0056 76.2853 68.0056H78.9966C79.0428 68.0056 79.0877 68.0267 79.1151 68.065C79.1411 68.1033 79.1483 68.1512 79.1327 68.1953L78.8182 69.0474C78.7732 69.1662 78.8195 69.2569 78.8501 69.2991C78.9048 69.3758 78.9946 69.4224 79.0851 69.4224C79.1431 69.4224 79.1965 69.4051 79.2466 69.37C80.7858 68.2917 82.8824 67.1822 84.9986 66.3262C85.108 66.2821 85.1731 66.1876 85.1731 66.0714C85.1724 65.9557 85.108 65.8593 84.9979 65.8152ZM67.2407 77.0475C64.7443 77.0475 62.7291 75.218 62.5546 72.79C62.3898 70.4936 64.1856 68.3965 66.557 68.1148C67.1847 68.0413 67.826 68.0254 68.4465 68.01C68.4465 68.01 68.6744 68.0056 68.6757 68.0056H71.7881C71.8271 68.0056 71.8629 68.0196 71.8903 68.0465C71.9176 68.0733 71.932 68.1084 71.932 68.1467C71.9293 69.4019 71.9248 71.0602 71.9092 72.7453C71.8877 75.073 69.8354 77.0015 67.3312 77.0469H67.2407V77.0475Z" fill="url(#paint7_linear_1_106)"/>
<defs>
<linearGradient id="paint0_linear_1_106" x1="69" y1="0" x2="69" y2="138" gradientUnits="userSpaceOnUse">
<stop stop-color="#1A1A1A"/>
<stop offset="0.565952" stop-color="#1A1A1A" stop-opacity="0"/>
</linearGradient>
<linearGradient id="paint1_linear_1_106" x1="69" y1="0" x2="69" y2="138" gradientUnits="userSpaceOnUse">
<stop stop-color="#333333"/>
<stop offset="0.745602" stop-color="#333333" stop-opacity="0"/>
</linearGradient>
<linearGradient id="paint2_linear_1_106" x1="69" y1="16" x2="69" y2="122" gradientUnits="userSpaceOnUse">
<stop stop-color="#1A1A1A"/>
<stop offset="0.658009" stop-color="#1A1A1A" stop-opacity="0"/>
</linearGradient>
<linearGradient id="paint3_linear_1_106" x1="69" y1="16" x2="69" y2="122" gradientUnits="userSpaceOnUse">
<stop stop-color="#333333"/>
<stop offset="0.82384" stop-color="#333333" stop-opacity="0"/>
</linearGradient>
<linearGradient id="paint4_linear_1_106" x1="69" y1="36" x2="69" y2="102" gradientUnits="userSpaceOnUse">
<stop stop-color="#1A1A1A"/>
<stop offset="1" stop-color="#1A1A1A" stop-opacity="0"/>
</linearGradient>
<linearGradient id="paint5_linear_1_106" x1="69" y1="36" x2="69" y2="102" gradientUnits="userSpaceOnUse">
<stop stop-color="#333333"/>
<stop offset="0.84964" stop-color="#333333" stop-opacity="0"/>
</linearGradient>
<linearGradient id="paint6_linear_1_106" x1="53.719" y1="72.7206" x2="79.9248" y2="72.7206" gradientUnits="userSpaceOnUse">
<stop stop-color="#79DE50"/>
<stop offset="0.6201" stop-color="#0DA354"/>
</linearGradient>
<linearGradient id="paint7_linear_1_106" x1="58.4424" y1="67.258" x2="85.1727" y2="67.258" gradientUnits="userSpaceOnUse">
<stop stop-color="#79DE50"/>
<stop offset="0.6201" stop-color="#0DA354"/>
</linearGradient>
</defs>
</svg>
