<svg width="141" height="45" viewBox="0 0 141 45" fill="none" xmlns="http://www.w3.org/2000/svg">
<path d="M35.7224 31.5534C35.3645 33.4654 34.4695 36.2981 32.2356 38.9435C29.1733 42.5672 25.4362 43.7248 24.0307 44.1629C22.2354 44.7187 20.361 45 18.4609 45C13.6264 45 9.05733 43.1804 5.59458 39.8773C2.13626 36.5821 0.153604 32.1649 0.00976676 27.4455C0.00177577 27.2626 0 27.077 0 26.8915C0 24.7957 0.359594 22.7426 1.07346 20.7941C2.27921 17.4814 4.435 14.5982 7.30642 12.4606C10.5374 10.0547 14.3944 8.78296 18.4601 8.78296H18.468C18.5471 8.78296 18.6234 8.78296 18.7025 8.78644C19.8452 8.80038 20.9817 8.91797 22.0889 9.134C22.5337 9.22285 22.8578 9.59915 22.8773 10.0521C22.9128 10.9162 22.9048 11.7812 22.8968 12.6958C22.8951 13.012 22.8906 13.3325 22.8906 13.6583C22.167 13.4884 20.8902 13.2594 19.2698 13.2594C17.0652 13.2594 13.7862 13.7106 10.6786 15.8621C8.9206 17.0798 4.80169 20.5414 4.53089 26.3898C4.2512 32.4332 8.32483 36.292 9.57941 37.3303C10.771 38.3164 14.0464 40.6125 18.6936 40.6125C19.0514 40.6125 19.4172 40.5994 19.775 40.5698C20.7996 40.4905 26.0826 39.879 29.4965 35.5882C30.5113 34.313 31.6026 31.536 31.8645 30.7878L34.9091 30.6449L34.9481 30.6432C35.1825 30.6432 35.4027 30.7451 35.5519 30.921C35.7028 31.0961 35.7641 31.3278 35.7224 31.5534Z" fill="url(#paint0_linear_189_2212)"/>
<path d="M42.6532 17.4753C39.7675 16.3063 36.9085 14.7933 34.8096 13.3247C34.7403 13.2767 34.6657 13.2515 34.5894 13.2515C34.4651 13.2515 34.3434 13.3168 34.2689 13.4213C34.2271 13.4788 34.165 13.6008 34.2253 13.7645L34.6542 14.9265C34.6755 14.9866 34.6657 15.052 34.6302 15.1042C34.5929 15.1548 34.5317 15.1852 34.4686 15.1852H30.7741C30.6658 15.1852 30.577 15.0981 30.577 14.9919L30.5752 0H26.7831C25.239 0.00348425 24.8395 0.405044 24.8324 1.95467C24.8288 3.07921 24.8306 4.20636 24.8306 5.33352C24.8306 5.91016 24.8324 6.48768 24.8324 7.06432C24.8306 9.09042 24.8324 11.1148 24.8359 13.14L24.8377 14.9927C24.8377 15.045 24.8164 15.0929 24.7809 15.1295C24.7436 15.1661 24.6921 15.1852 24.6415 15.1852H18.6074C18.5914 15.1887 18.5763 15.1913 18.5604 15.1913C11.8834 15.2706 6.79319 20.0728 6.45491 26.6084C6.29598 29.7111 7.52126 32.8504 9.81645 35.2197C12.0743 37.5489 15.1269 38.886 18.1945 38.886C18.3739 38.886 18.5541 38.8825 18.7335 38.8721C25.7016 38.5245 30.5717 33.4872 30.5752 26.6232C30.5752 25.2957 30.5752 20.6555 30.5752 20.6555C30.5752 20.5475 30.664 20.4621 30.7724 20.4621H34.4695C34.5326 20.4621 34.5938 20.4909 34.6311 20.5432C34.6666 20.5954 34.6764 20.6608 34.6551 20.7209L34.2262 21.8829C34.165 22.0449 34.228 22.1686 34.2697 22.2261C34.3443 22.3306 34.4669 22.3942 34.5903 22.3942C34.6693 22.3942 34.7421 22.3706 34.8105 22.3227C36.9094 20.8524 39.7684 19.3393 42.6541 18.1721C42.8032 18.112 42.892 17.9831 42.892 17.8246C42.8911 17.6669 42.8032 17.5354 42.6532 17.4753ZM18.4387 32.792C15.0346 32.792 12.2866 30.2973 12.0486 26.9864C11.824 23.8549 14.2728 20.9952 17.5064 20.6111C18.3624 20.5109 19.2369 20.4892 20.0831 20.4682C20.0831 20.4682 20.3938 20.4621 20.3956 20.4621H24.6397C24.693 20.4621 24.7418 20.4813 24.7791 20.5179C24.8164 20.5545 24.8359 20.6024 24.8359 20.6547C24.8324 22.3663 24.8262 24.6276 24.8049 26.9254C24.7756 30.0996 21.9769 32.7293 18.5621 32.7912H18.4387V32.792Z" fill="url(#paint1_linear_189_2212)"/>
<path d="M60.8735 30.7145C60.8735 33.5184 59.8613 35.9139 57.8369 37.8999C55.8116 39.8868 53.3708 40.8789 50.5127 40.8789C47.6546 40.8789 45.2129 39.8859 43.1886 37.8999C41.1633 35.9139 40.152 33.5184 40.152 30.7145C40.152 27.9105 41.1642 25.516 43.1886 23.5291C45.2129 21.5431 47.6546 20.55 50.5127 20.55C52.4181 20.55 54.1833 21.0178 55.8072 21.9525V26.3496C54.4212 24.7355 52.657 23.928 50.5127 23.928C48.6073 23.928 46.9772 24.5866 45.6249 25.9036C44.2718 27.2207 43.5952 28.8251 43.5952 30.7154C43.5952 32.5847 44.2718 34.1778 45.6249 35.4949C46.9781 36.8119 48.6073 37.4705 50.5127 37.4705C52.4181 37.4705 54.0421 36.8119 55.3846 35.4949C56.7271 34.1778 57.3983 32.5847 57.3983 30.7154V14.9099H60.8735V30.7145Z" fill="#0DA354"/>
<path d="M66.0862 23.5291C68.1106 21.5431 70.5523 20.55 73.4104 20.55C76.2685 20.55 78.7093 21.5431 80.7346 23.5291C82.759 25.516 83.7712 27.9105 83.7712 30.7145C83.7712 31.2458 83.717 31.8085 83.6087 32.4035H68.3761V29.0255H80.1015C79.733 27.5386 78.9268 26.3174 77.682 25.3609C76.4363 24.4054 75.013 23.9272 73.4113 23.9272C71.4624 23.9272 69.8225 24.5961 68.4906 25.935C67.1588 27.2729 66.4929 28.8661 66.4929 30.7145C66.4929 32.5629 67.1588 34.1508 68.4906 35.4783C69.8225 36.8058 71.4624 37.4696 73.4113 37.4696C75.425 37.4696 77.1031 36.7579 78.4456 35.3346H82.6355C81.7477 37.0131 80.4806 38.3563 78.8354 39.365C77.1893 40.3746 75.3815 40.8789 73.4113 40.8789C70.5532 40.8789 68.1115 39.8859 66.0871 37.8999C64.0618 35.9139 63.0505 33.5184 63.0505 30.7145C63.0505 27.9105 64.061 25.5151 66.0862 23.5291Z" fill="#0DA354"/>
<path d="M87.4746 20.5491L92.8987 32.5297L98.3228 20.5491H102.09L92.8987 40.8788L83.6744 20.5491H87.4746Z" fill="#0DA354"/>
<path d="M112.321 20.5491C114.248 20.5491 116.029 21.0325 117.665 21.9985C119.299 22.9654 120.56 24.245 121.449 25.8382H117.161C115.819 24.5638 114.205 23.9262 112.321 23.9262C110.416 23.9262 108.792 24.5899 107.449 25.9174C106.107 27.2449 105.436 28.8442 105.436 30.7126C105.436 32.5819 106.107 34.1751 107.449 35.4922C108.792 36.8092 110.416 37.4677 112.321 37.4677C113.447 37.4677 114.497 37.2238 115.471 36.7352C116.445 36.2465 117.246 35.5775 117.875 34.7274H121.838C121.036 36.5549 119.775 38.0365 118.053 39.1724C116.332 40.3091 114.421 40.8771 112.32 40.8771C109.462 40.8771 107.026 39.8841 105.012 37.898C102.998 35.912 101.992 33.5166 101.992 30.7126C101.992 27.9087 102.998 25.5141 105.012 23.5272C107.027 21.543 109.463 20.5491 112.321 20.5491Z" fill="#0DA354"/>
<path d="M124.745 15.4038C125.08 15.0745 125.486 14.9099 125.963 14.9099C126.439 14.9099 126.844 15.0745 127.181 15.4038C127.517 15.7331 127.684 16.132 127.684 16.5989C127.684 17.0667 127.517 17.4647 127.181 17.794C126.845 18.1233 126.439 18.2879 125.963 18.2879C125.486 18.2879 125.08 18.1233 124.745 17.794C124.409 17.4647 124.241 17.0667 124.241 16.5989C124.241 16.1311 124.409 15.7331 124.745 15.4038ZM124.241 20.5492H127.684V40.8789H124.241V20.5492Z" fill="#0DA354"/>
<path d="M130.672 30.7145C130.672 27.9105 131.679 25.516 133.693 23.5291C135.706 21.5431 138.143 20.55 141.001 20.55V23.928C139.095 23.928 137.471 24.5918 136.129 25.9193C134.786 27.2468 134.115 28.8461 134.115 30.7145V40.8789H130.672V30.7145Z" fill="#0DA354"/>
<path d="M62.8642 14.1904C62.9113 14.1442 62.9681 14.1216 63.0347 14.1216C63.1013 14.1216 63.1581 14.1442 63.2052 14.1904C63.2522 14.2366 63.2753 14.2923 63.2753 14.3576C63.2753 14.423 63.2522 14.4787 63.2052 14.5249C63.1581 14.5711 63.1013 14.5937 63.0347 14.5937C62.9681 14.5937 62.9113 14.5711 62.8642 14.5249C62.8172 14.4787 62.7941 14.423 62.7941 14.3576C62.7941 14.2923 62.8172 14.2366 62.8642 14.1904ZM62.7941 14.9099H63.2753V17.7522H62.7941V14.9099Z" fill="#0DA354"/>
<path d="M63.824 17.7522V16.0144C63.824 15.7113 63.9341 15.4517 64.1552 15.2348C64.3762 15.0179 64.6408 14.9099 64.9498 14.9099C65.2615 14.9099 65.5269 15.0179 65.7471 15.2331C65.9664 15.4482 66.0765 15.7087 66.0765 16.0153V17.7531H65.5953V16.0153C65.5953 15.8428 65.5314 15.6947 65.4044 15.5702C65.2774 15.4456 65.1256 15.3829 64.9507 15.3829C64.7749 15.3829 64.624 15.4456 64.497 15.5702C64.37 15.6947 64.3061 15.8437 64.3061 16.0153V17.7531H63.824V17.7522Z" fill="#0DA354"/>
<path d="M66.4717 17.7522V16.0144C66.4717 15.7113 66.5818 15.4517 66.8029 15.2348C67.0239 15.0179 67.2885 14.9099 67.5975 14.9099C67.9092 14.9099 68.1746 15.0179 68.3948 15.2331C68.6141 15.4482 68.7242 15.7087 68.7242 16.0153V17.7531H68.243V16.0153C68.243 15.8428 68.1791 15.6947 68.0521 15.5702C67.9251 15.4456 67.7733 15.3829 67.5984 15.3829C67.4226 15.3829 67.2717 15.4456 67.1447 15.5702C67.0177 15.6947 66.9538 15.8437 66.9538 16.0153V17.7531H66.4717V17.7522Z" fill="#0DA354"/>
<path d="M69.4576 15.3263C69.7409 15.0484 70.0818 14.9099 70.4813 14.9099C70.8809 14.9099 71.2218 15.0484 71.5051 15.3263C71.7883 15.6041 71.9295 15.9386 71.9295 16.3306C71.9295 16.7226 71.7883 17.058 71.5051 17.335C71.2218 17.6128 70.8809 17.7513 70.4813 17.7513C70.0818 17.7513 69.74 17.6128 69.4576 17.335C69.1744 17.0571 69.0332 16.7226 69.0332 16.3306C69.0332 15.9386 69.1744 15.6041 69.4576 15.3263ZM71.165 15.6608C70.9759 15.4752 70.7477 15.382 70.4813 15.382C70.215 15.382 69.9868 15.4752 69.7977 15.6608C69.6086 15.8463 69.5135 16.0702 69.5135 16.3315C69.5135 16.5928 69.6077 16.8158 69.7977 16.9996C69.9868 17.1834 70.215 17.2757 70.4813 17.2757C70.7477 17.2757 70.9759 17.1834 71.165 16.9996C71.3541 16.8158 71.4491 16.5928 71.4491 16.3315C71.4491 16.0702 71.3541 15.8463 71.165 15.6608Z" fill="#0DA354"/>
<path d="M72.5023 14.9099L73.2605 16.585L74.0188 14.9099H74.5453L73.2605 17.7522L71.9713 14.9099H72.5023Z" fill="#0DA354"/>
<path d="M77.3617 16.3313V17.7529H76.8804V16.3313C76.8804 16.07 76.7854 15.8462 76.5963 15.6606C76.4072 15.4751 76.179 15.3819 75.9126 15.3819C75.6463 15.3819 75.419 15.4751 75.2316 15.6606C75.0443 15.8462 74.9502 16.07 74.9502 16.3313C74.9502 16.5927 75.0443 16.8157 75.2316 16.9995C75.419 17.1832 75.6463 17.2756 75.9126 17.2756C76.2154 17.2756 76.4622 17.1632 76.6531 16.9367V17.5517C76.4196 17.685 76.1737 17.7521 75.9126 17.7521C75.5131 17.7521 75.1712 17.6136 74.8889 17.3357C74.6057 17.0578 74.4645 16.7233 74.4645 16.3313C74.4645 15.9394 74.6057 15.6049 74.8889 15.327C75.1721 15.0491 75.5131 14.9106 75.9126 14.9106C76.3122 14.9106 76.6531 15.0491 76.9364 15.327C77.2196 15.604 77.3617 15.9394 77.3617 16.3313Z" fill="#0DA354"/>
<path d="M77.9014 16.8036V15.3959H77.5427V14.9238H77.9014V14.1216H78.3871V14.9238H78.7645V15.3959H78.3871V16.8036C78.3871 16.9342 78.4342 17.0466 78.5283 17.1398C78.6224 17.233 78.736 17.2801 78.8692 17.2801H79.0237V17.7522H78.8692C78.6029 17.7522 78.3747 17.659 78.1856 17.4734C77.9964 17.2888 77.9014 17.0649 77.9014 16.8036Z" fill="#0DA354"/>
<path d="M79.5707 14.1904C79.6177 14.1442 79.6745 14.1216 79.7411 14.1216C79.8077 14.1216 79.8646 14.1442 79.9116 14.1904C79.9587 14.2366 79.9818 14.2923 79.9818 14.3576C79.9818 14.423 79.9587 14.4787 79.9116 14.5249C79.8646 14.5711 79.8077 14.5937 79.7411 14.5937C79.6745 14.5937 79.6177 14.5711 79.5707 14.5249C79.5236 14.4787 79.5005 14.423 79.5005 14.3576C79.4996 14.2923 79.5236 14.2366 79.5707 14.1904ZM79.4996 14.9099H79.9809V17.7522H79.4996V14.9099Z" fill="#0DA354"/>
<path d="M80.5305 17.7522V16.0144C80.5305 15.7113 80.6406 15.4517 80.8617 15.2348C81.0828 15.0179 81.3474 14.9099 81.6564 14.9099C81.968 14.9099 82.2335 15.0179 82.4537 15.2331C82.673 15.4482 82.7831 15.7087 82.7831 16.0153V17.7531H82.3019V16.0153C82.3019 15.8428 82.2379 15.6947 82.111 15.5702C81.984 15.4456 81.8322 15.3829 81.6572 15.3829C81.4814 15.3829 81.3305 15.4456 81.2035 15.5702C81.0766 15.6947 81.0126 15.8437 81.0126 16.0153V17.7531H80.5305V17.7522Z" fill="#0DA354"/>
<path d="M83.5343 15.3263C83.8175 15.0484 84.1585 14.9099 84.558 14.9099C84.9576 14.9099 85.2985 15.0484 85.5817 15.3263C85.865 15.6041 86.0062 15.9386 86.0062 16.3306V17.4534C86.0062 17.8428 85.8641 18.1764 85.5791 18.456C85.2941 18.7348 84.954 18.875 84.5571 18.875C84.2517 18.875 83.9747 18.7888 83.7261 18.6163C83.4774 18.4438 83.3025 18.2208 83.1995 17.9482H83.7358C83.8202 18.0849 83.9356 18.1938 84.0812 18.2757C84.2268 18.3576 84.3858 18.3985 84.558 18.3985C84.8244 18.3985 85.0526 18.3062 85.2417 18.1224C85.4308 17.9386 85.5258 17.7156 85.5258 17.4543V16.3315C85.5258 16.0702 85.4308 15.8463 85.2417 15.6608C85.0526 15.4752 84.8244 15.382 84.558 15.382C84.2916 15.382 84.0635 15.4752 83.8743 15.6608C83.6852 15.8463 83.5902 16.0702 83.5902 16.3315C83.5902 16.5928 83.6843 16.8167 83.8743 17.0022C84.0635 17.1877 84.2916 17.2809 84.558 17.2809C84.8581 17.2809 85.1041 17.1668 85.2985 16.9377V17.5527C85.0748 17.686 84.8279 17.7531 84.558 17.7531C84.1585 17.7531 83.8166 17.6146 83.5343 17.3367C83.251 17.0588 83.1099 16.7243 83.1099 16.3324C83.1099 15.9404 83.2519 15.6041 83.5343 15.3263Z" fill="#0DA354"/>
<path d="M88.9042 17.7522C88.6378 17.7522 88.4096 17.6599 88.2205 17.4761C88.0314 17.2923 87.9364 17.0693 87.9364 16.808V14.9099H88.4176V16.808C88.4176 16.9386 88.4656 17.0501 88.5606 17.1424C88.6556 17.2348 88.7701 17.2809 88.9033 17.2809C89.0338 17.2809 89.1466 17.2348 89.2416 17.1424C89.3366 17.0501 89.3845 16.9395 89.3845 16.808V14.9099H89.8658L89.8702 16.808C89.8702 16.9386 89.9173 17.0501 90.0114 17.1424C90.1055 17.2348 90.2183 17.2809 90.3523 17.2809C90.4855 17.2809 90.6001 17.2348 90.6951 17.1424C90.7901 17.0501 90.838 16.9395 90.838 16.808V14.9099H91.3192V16.808C91.3192 17.0693 91.2242 17.2923 91.0351 17.4761C90.846 17.6599 90.6178 17.7522 90.3514 17.7522C90.0611 17.7522 89.8187 17.6451 89.6252 17.4316C89.4387 17.6459 89.1981 17.7522 88.9042 17.7522Z" fill="#0DA354"/>
<path d="M91.963 14.1904C92.01 14.1442 92.0669 14.1216 92.1334 14.1216C92.2 14.1216 92.2569 14.1442 92.3039 14.1904C92.351 14.2366 92.3741 14.2923 92.3741 14.3576C92.3741 14.423 92.351 14.4787 92.3039 14.5249C92.2569 14.5711 92.2 14.5937 92.1334 14.5937C92.0669 14.5937 92.01 14.5711 91.963 14.5249C91.9159 14.4787 91.8928 14.423 91.8928 14.3576C91.8928 14.2923 91.9159 14.2366 91.963 14.1904ZM91.8928 14.9099H92.3741V17.7522H91.8928V14.9099Z" fill="#0DA354"/>
<path d="M93.1412 16.8036V15.3959H92.7825V14.9238H93.1412V14.1216H93.6269V14.9238H94.0042V15.3959H93.6269V16.8036C93.6269 16.9342 93.6739 17.0466 93.768 17.1398C93.8621 17.233 93.9758 17.2801 94.109 17.2801H94.2635V17.7522H94.109C93.8426 17.7522 93.6144 17.659 93.4253 17.4734C93.2362 17.2888 93.1412 17.0649 93.1412 16.8036Z" fill="#0DA354"/>
<path d="M94.6763 17.7522V14.1216H95.1575V15.1102C95.3511 14.977 95.5659 14.9099 95.8021 14.9099C96.1111 14.9099 96.3757 15.0188 96.5968 15.2348C96.8178 15.4517 96.9279 15.7113 96.9279 16.0144V17.7522H96.4467V16.0144C96.4467 15.8419 96.3828 15.6947 96.2558 15.571C96.1288 15.4473 95.977 15.3864 95.8021 15.3864C95.6263 15.3864 95.4754 15.4482 95.3484 15.571C95.2214 15.6939 95.1575 15.8419 95.1575 16.0144V17.7522H94.6763Z" fill="#0DA354"/>
<path d="M101.742 16.3315C101.742 16.7234 101.601 17.0588 101.318 17.3358C101.034 17.6137 100.694 17.7522 100.294 17.7522C99.8944 17.7522 99.5526 17.6137 99.2702 17.3358C98.987 17.0579 98.8458 16.7234 98.8458 16.3315C98.8458 15.9395 98.987 15.605 99.2702 15.3271C99.5535 15.0493 99.8944 14.9108 100.294 14.9108C100.56 14.9108 100.807 14.9761 101.034 15.1068V15.7217C100.841 15.4961 100.594 15.3829 100.294 15.3829C100.028 15.3829 99.7994 15.4752 99.6103 15.659C99.4212 15.8428 99.3262 16.0675 99.3262 16.3315C99.3262 16.5928 99.4203 16.8158 99.6103 16.9996C99.7994 17.1834 100.028 17.2757 100.294 17.2757C100.56 17.2757 100.788 17.1834 100.975 16.9996C101.162 16.8158 101.256 16.5928 101.256 16.3315V14.1216H101.742V16.3315Z" fill="#0DA354"/>
<path d="M102.47 15.3263C102.753 15.0484 103.094 14.9099 103.494 14.9099C103.893 14.9099 104.234 15.0484 104.518 15.3263C104.801 15.6041 104.942 15.9386 104.942 16.3306C104.942 16.4047 104.934 16.4839 104.919 16.5667H102.789V16.0946H104.428C104.377 15.8864 104.264 15.7156 104.09 15.5824C103.916 15.4482 103.717 15.382 103.492 15.382C103.22 15.382 102.991 15.4752 102.804 15.6625C102.618 15.8498 102.524 16.0728 102.524 16.3306C102.524 16.5893 102.618 16.8114 102.804 16.997C102.991 17.1825 103.22 17.2757 103.492 17.2757C103.774 17.2757 104.008 17.1764 104.196 16.9769H104.782C104.658 17.2113 104.481 17.3994 104.251 17.5405C104.021 17.6816 103.768 17.7522 103.493 17.7522C103.094 17.7522 102.752 17.6137 102.469 17.3358C102.186 17.058 102.045 16.7235 102.045 16.3315C102.045 15.9395 102.188 15.6041 102.47 15.3263Z" fill="#0DA354"/>
<path d="M105.461 14.9099L106.219 16.585L106.977 14.9099H107.504L106.219 17.7522L104.93 14.9099H105.461Z" fill="#0DA354"/>
<path d="M110.792 14.9099C111.061 14.9099 111.311 14.9779 111.539 15.1129C111.767 15.2479 111.944 15.4273 112.068 15.6494H111.469C111.282 15.4709 111.056 15.382 110.792 15.382C110.526 15.382 110.299 15.4752 110.111 15.6608C109.924 15.8463 109.83 16.0702 109.83 16.3315C109.83 16.5928 109.924 16.8158 110.111 16.9996C110.299 17.1834 110.526 17.2757 110.792 17.2757C110.95 17.2757 111.097 17.2417 111.233 17.1729C111.369 17.105 111.481 17.0109 111.568 16.8925H112.122C112.011 17.1477 111.834 17.355 111.593 17.5135C111.353 17.6721 111.085 17.7522 110.792 17.7522C110.392 17.7522 110.051 17.6137 109.77 17.3358C109.488 17.058 109.347 16.7235 109.347 16.3315C109.347 15.9395 109.488 15.605 109.77 15.3272C110.052 15.0493 110.393 14.9099 110.792 14.9099Z" fill="#0DA354"/>
<path d="M112.529 14.1904C112.576 14.1442 112.633 14.1216 112.699 14.1216C112.766 14.1216 112.823 14.1442 112.87 14.1904C112.917 14.2366 112.94 14.2923 112.94 14.3576C112.94 14.423 112.917 14.4787 112.87 14.5249C112.823 14.5711 112.766 14.5937 112.699 14.5937C112.633 14.5937 112.576 14.5711 112.529 14.5249C112.482 14.4787 112.459 14.423 112.459 14.3576C112.459 14.2923 112.482 14.2366 112.529 14.1904ZM112.459 14.9099H112.94V17.7522H112.459V14.9099Z" fill="#0DA354"/>
<path d="M113.357 16.3313C113.357 15.9394 113.499 15.6049 113.78 15.327C114.062 15.0491 114.402 14.9106 114.802 14.9106V15.3828C114.536 15.3828 114.308 15.476 114.121 15.6615C113.934 15.847 113.84 16.0709 113.84 16.3322V17.7538H113.358V16.3313H113.357Z" fill="#0DA354"/>
<path d="M116.464 14.9099C116.733 14.9099 116.983 14.9779 117.211 15.1129C117.439 15.2479 117.616 15.4273 117.74 15.6494H117.141C116.953 15.4709 116.728 15.382 116.464 15.382C116.198 15.382 115.97 15.4752 115.783 15.6608C115.596 15.8463 115.502 16.0702 115.502 16.3315C115.502 16.5928 115.596 16.8158 115.783 16.9996C115.97 17.1834 116.198 17.2757 116.464 17.2757C116.621 17.2757 116.769 17.2417 116.905 17.1729C117.04 17.105 117.153 17.0109 117.24 16.8925H117.794C117.682 17.1477 117.506 17.355 117.265 17.5135C117.024 17.6721 116.757 17.7522 116.463 17.7522C116.064 17.7522 115.723 17.6137 115.441 17.3358C115.16 17.058 115.019 16.7235 115.019 16.3315C115.019 15.9395 115.16 15.605 115.441 15.3272C115.724 15.0493 116.064 14.9099 116.464 14.9099Z" fill="#0DA354"/>
<path d="M118.067 16.3315V14.1216H118.548V16.3315C118.548 16.5928 118.642 16.8167 118.829 17.0022C119.017 17.1877 119.244 17.2809 119.51 17.2809V17.753C119.111 17.753 118.77 17.6145 118.489 17.3367C118.208 17.0579 118.067 16.7234 118.067 16.3315Z" fill="#0DA354"/>
<path d="M120.044 15.3263C120.327 15.0484 120.668 14.9099 121.068 14.9099C121.467 14.9099 121.808 15.0484 122.092 15.3263C122.375 15.6041 122.516 15.9386 122.516 16.3306C122.516 16.4047 122.508 16.4839 122.493 16.5667H120.363V16.0946H122.002C121.95 15.8864 121.838 15.7156 121.664 15.5824C121.49 15.4482 121.291 15.382 121.066 15.382C120.793 15.382 120.564 15.4752 120.378 15.6625C120.191 15.8498 120.098 16.0728 120.098 16.3306C120.098 16.5893 120.191 16.8114 120.378 16.997C120.564 17.1825 120.793 17.2757 121.066 17.2757C121.347 17.2757 121.582 17.1764 121.77 16.9769H122.356C122.232 17.2113 122.055 17.3994 121.825 17.5405C121.595 17.6816 121.342 17.7522 121.067 17.7522C120.667 17.7522 120.326 17.6137 120.043 17.3358C119.76 17.058 119.619 16.7235 119.619 16.3315C119.619 15.9395 119.762 15.6041 120.044 15.3263Z" fill="#0DA354"/>
<defs>
<linearGradient id="paint0_linear_189_2212" x1="0" y1="26.8917" x2="35.7352" y2="26.8917" gradientUnits="userSpaceOnUse">
<stop stop-color="#79DE50"/>
<stop offset="0.6201" stop-color="#0DA354"/>
</linearGradient>
<linearGradient id="paint1_linear_189_2212" x1="6.44113" y1="19.4427" x2="42.8915" y2="19.4427" gradientUnits="userSpaceOnUse">
<stop stop-color="#79DE50"/>
<stop offset="0.6201" stop-color="#0DA354"/>
</linearGradient>
</defs>
</svg>
