<svg width="64" height="67" viewBox="0 0 64 67" fill="none" xmlns="http://www.w3.org/2000/svg">
<path d="M52.559 46.4255C52.0326 49.2387 50.7158 53.4065 47.4289 57.2987C42.9233 62.6302 37.4248 64.3335 35.3568 64.9781C32.7153 65.7958 29.9576 66.2098 27.162 66.2098C20.0488 66.2098 13.3262 63.5325 8.23142 58.6726C3.14312 53.8243 0.226001 47.3252 0.01437 40.3814C0.00261273 40.1123 0 39.8393 0 39.5663C0 36.4828 0.529078 33.462 1.5794 30.595C3.35344 25.721 6.5253 21.4789 10.7501 18.3338C15.504 14.794 21.1788 12.9229 27.1607 12.9229H27.1724C27.2887 12.9229 27.401 12.9229 27.5173 12.928C29.1986 12.9485 30.8707 13.1215 32.4998 13.4393C33.1543 13.5701 33.6311 14.1237 33.6598 14.7902C33.7121 16.0615 33.7003 17.3342 33.6886 18.6799C33.686 19.1451 33.6794 19.6167 33.6794 20.096C32.6147 19.8461 30.7362 19.5091 28.3521 19.5091C25.1084 19.5091 20.284 20.1729 15.7117 23.3385C13.1251 25.1302 7.06483 30.2234 6.66639 38.8281C6.25488 47.7199 12.2485 53.3975 14.0944 54.9252C15.8475 56.376 20.6667 59.7543 27.5042 59.7543C28.0307 59.7543 28.5689 59.7351 29.0954 59.6915C30.6029 59.5749 38.3758 58.6752 43.3988 52.3619C44.892 50.4857 46.4975 46.3999 46.8829 45.299L51.3624 45.0888L51.4199 45.0862C51.7648 45.0862 52.0888 45.2362 52.3082 45.4951C52.5303 45.7527 52.6204 46.0936 52.559 46.4255Z" fill="url(#paint0_linear_189_2138)"/>
<path d="M62.7565 25.7117C58.5108 23.9918 54.3043 21.7656 51.2161 19.6048C51.1142 19.5344 51.0045 19.4972 50.8921 19.4972C50.7092 19.4972 50.5302 19.5933 50.4205 19.7471C50.3591 19.8317 50.2677 20.0111 50.3565 20.2521L50.9875 21.9617C51.0188 22.0502 51.0045 22.1463 50.9522 22.2232C50.8973 22.2975 50.8072 22.3424 50.7144 22.3424H45.2787C45.1193 22.3424 44.9886 22.2142 44.9886 22.0579L44.986 0H39.4065C37.1348 0.00512645 36.5469 0.59595 36.5364 2.87594C36.5312 4.5305 36.5338 6.18891 36.5338 7.84732C36.5338 8.69575 36.5364 9.54546 36.5364 10.3939C36.5338 13.3749 36.5364 16.3534 36.5417 19.3331L36.5443 22.0591C36.5443 22.136 36.5129 22.2065 36.4607 22.2603C36.4058 22.3142 36.33 22.3424 36.2556 22.3424H27.3775C27.354 22.3475 27.3318 22.3513 27.3083 22.3513C17.4844 22.468 9.995 29.5335 9.49728 39.1494C9.26344 43.7146 11.0662 48.3335 14.4432 51.8195C17.7653 55.2465 22.2566 57.2138 26.7701 57.2138C27.0339 57.2138 27.2991 57.2087 27.563 57.1933C37.8154 56.6819 44.9808 49.2704 44.986 39.1712C44.986 37.2181 44.986 30.3909 44.986 30.3909C44.986 30.232 45.1167 30.1064 45.276 30.1064H50.7158C50.8085 30.1064 50.8986 30.1487 50.9535 30.2256C51.0058 30.3025 51.0201 30.3986 50.9888 30.487L50.3578 32.1967C50.2677 32.4351 50.3604 32.6171 50.4218 32.7017C50.5316 32.8554 50.7118 32.949 50.8934 32.949C51.0097 32.949 51.1168 32.9144 51.2174 32.8439C54.3056 30.6805 58.5121 28.4544 62.7578 26.737C62.9773 26.6486 63.1079 26.4589 63.1079 26.2257C63.1066 25.9937 62.9773 25.8002 62.7565 25.7117ZM27.1293 48.2476C22.1207 48.2476 18.0775 44.5771 17.7274 39.7057C17.3969 35.0983 20.9998 30.8907 25.7576 30.3255C27.017 30.1782 28.3037 30.1461 29.5487 30.1154C29.5487 30.1154 30.0059 30.1064 30.0085 30.1064H36.253C36.3314 30.1064 36.4032 30.1346 36.4581 30.1884C36.5129 30.2422 36.5417 30.3127 36.5417 30.3896C36.5364 32.908 36.5273 36.2351 36.496 39.616C36.4528 44.2862 32.3352 48.1553 27.3109 48.2463H27.1293V48.2476Z" fill="url(#paint1_linear_189_2138)"/>
<defs>
<linearGradient id="paint0_linear_189_2138" x1="0" y1="39.5666" x2="52.578" y2="39.5666" gradientUnits="userSpaceOnUse">
<stop stop-color="#79DE50"/>
<stop offset="0.6201" stop-color="#0DA354"/>
</linearGradient>
<linearGradient id="paint1_linear_189_2138" x1="9.477" y1="28.6065" x2="63.1072" y2="28.6065" gradientUnits="userSpaceOnUse">
<stop stop-color="#79DE50"/>
<stop offset="0.6201" stop-color="#0DA354"/>
</linearGradient>
</defs>
</svg>
