<svg width="27" height="39" viewBox="0 0 27 39" fill="none" xmlns="http://www.w3.org/2000/svg">
<path d="M26.1182 20.0984C24.7169 21.3502 23.0366 22.226 21.2055 22.6527C21.1497 22.5011 21.0882 22.3383 21.0212 22.1698L20.9989 22.1081C20.6584 21.2773 20.2397 20.4801 19.7596 19.7334C21.2836 19.5201 22.7351 18.8689 23.9075 17.8752L26.1182 20.0984Z" fill="white"/>
<path d="M18.8446 27.6825C18.8446 29.1645 18.5655 30.6129 18.0017 31.9882C17.7002 32.7292 17.3094 33.4535 16.8404 34.144C16.6954 34.3517 16.539 34.5651 16.3716 34.7728C16.1091 35.1039 15.83 35.4184 15.5453 35.7047C14.5404 36.7208 13.368 37.5179 12.0617 38.0849H11.9167L11.8105 38.1915C10.6773 38.6519 9.4826 38.9214 8.26001 39V35.8562C10.186 35.6934 11.9725 34.8682 13.3401 33.4872C13.6863 33.1447 14.0045 32.7629 14.2836 32.3532C15.0875 31.1855 15.5788 29.8269 15.7016 28.4346C15.724 28.2045 15.7407 27.9575 15.7407 27.6768C15.7407 24.9822 14.4232 22.4616 12.2237 20.929C11.3025 20.289 10.2865 19.8512 9.21463 19.6378C8.74011 19.5367 8.24326 19.4806 7.74641 19.475C7.69059 19.475 7.63476 19.475 7.57335 19.475C6.87552 19.475 6.1777 19.5648 5.49662 19.7445C4.31869 20.0532 3.22449 20.6259 2.30336 21.4118L0.0926514 19.1887C0.528095 18.8013 0.991452 18.4476 1.47156 18.1389C2.72764 17.3249 4.10655 16.7803 5.56919 16.5165C5.60827 16.5109 5.64176 16.5053 5.68084 16.4996C5.70876 16.494 5.74225 16.4884 5.78133 16.4829C6.01022 16.4435 6.2391 16.4155 6.468 16.393C6.77504 16.3649 7.07649 16.348 7.38353 16.3425L8.33817 16.3256L8.01438 15.4217C7.57893 14.1923 7.35562 12.9124 7.35562 11.61C7.35562 10.1223 7.63476 8.67395 8.1986 7.30417C8.50006 6.56314 8.89084 5.83896 9.35978 5.15407C9.74499 4.59268 10.1804 4.07059 10.6605 3.58781C12.5865 1.63418 15.2104 0.455279 17.9514 0.28125V3.425C16.0421 3.59342 14.2167 4.43549 12.8656 5.79967C12.5251 6.14211 12.2069 6.52385 11.9278 6.93366C10.9732 8.31466 10.4707 9.93146 10.4707 11.61C10.4707 14.3046 11.7882 16.8253 13.9878 18.3579C15.7909 19.6097 17.1755 21.3445 18.0017 23.371C18.0742 23.5563 18.1357 23.7191 18.1915 23.8706C18.627 25.0945 18.8502 26.3801 18.8502 27.6825H18.8446Z" fill="white"/>
<path d="M4.97202 26.4365V34.5093H1.77319V30.2821C1.77319 28.3621 3.15209 26.7678 4.97202 26.4365Z" fill="white"/>
</svg>
