<svg width="38" height="38" viewBox="0 0 38 38" fill="none" xmlns="http://www.w3.org/2000/svg">
<path fill-rule="evenodd" clip-rule="evenodd" d="M14.25 30.875C14.7802 30.875 15.2462 30.5235 15.3918 30.0137L16.6794 25.5073C17.2429 23.5348 18.7848 21.9929 20.7573 21.4294L25.2637 20.1418C25.7735 19.9962 26.125 19.5302 26.125 19C26.125 18.4698 25.7735 18.0038 25.2637 17.8582L20.7573 16.5706C18.7848 16.0071 17.2429 14.4652 16.6794 12.4927L15.3918 7.98627C15.2462 7.47647 14.7802 7.125 14.25 7.125C13.7198 7.125 13.2538 7.47647 13.1082 7.98627L11.8206 12.4927C11.2571 14.4652 9.71522 16.0071 7.74273 16.5706L3.23627 17.8582C2.72647 18.0038 2.375 18.4698 2.375 19C2.375 19.5302 2.72647 19.9962 3.23627 20.1418L7.74274 21.4294C9.71522 21.9929 11.2571 23.5348 11.8206 25.5073L13.1082 30.0137C13.2538 30.5235 13.7198 30.875 14.25 30.875Z" fill="white"/>
<path fill-rule="evenodd" clip-rule="evenodd" d="M28.5 35.625C29.0449 35.625 29.5199 35.2541 29.652 34.7255L30.0619 33.086C30.4342 31.5969 31.5969 30.4342 33.086 30.0619L34.7255 29.652C35.2541 29.5199 35.625 29.0449 35.625 28.5C35.625 27.9551 35.2541 27.4801 34.7255 27.348L33.086 26.9381C31.5969 26.5658 30.4342 25.4031 30.0619 23.914L29.652 22.2745C29.5199 21.7459 29.0449 21.375 28.5 21.375C27.9551 21.375 27.4801 21.7459 27.348 22.2745L26.9381 23.914C26.5658 25.4031 25.4031 26.5658 23.914 26.9381L22.2745 27.348C21.7459 27.4801 21.375 27.9551 21.375 28.5C21.375 29.0449 21.7459 29.5199 22.2745 29.652L23.914 30.0619C25.4031 30.4342 26.5658 31.5969 26.9381 33.086L27.348 34.7255C27.4801 35.2541 27.9551 35.625 28.5 35.625Z" fill="white"/>
<path fill-rule="evenodd" clip-rule="evenodd" d="M26.125 14.25C26.6361 14.25 27.0899 13.9229 27.2516 13.438L27.8758 11.5654C28.1122 10.8562 28.6687 10.2997 29.3779 10.0633L31.2505 9.43906C31.7354 9.27743 32.0625 8.82364 32.0625 8.3125C32.0625 7.80136 31.7354 7.34757 31.2505 7.18594L29.3779 6.56172C28.6687 6.32532 28.1122 5.76882 27.8758 5.05964L27.2516 3.18698C27.0899 2.70207 26.6361 2.375 26.125 2.375C25.6139 2.375 25.1601 2.70207 24.9984 3.18698L24.3742 5.05964C24.1378 5.76882 23.5813 6.32532 22.8721 6.56172L20.9995 7.18594C20.5146 7.34757 20.1875 7.80136 20.1875 8.3125C20.1875 8.82364 20.5146 9.27743 20.9995 9.43906L22.8721 10.0633C23.5813 10.2997 24.1378 10.8562 24.3742 11.5654L24.9984 13.438C25.1601 13.9229 25.6139 14.25 26.125 14.25Z" fill="white"/>
</svg>
